<svg xmlns="http://www.w3.org/2000/svg" viewBox="0 0 38 50.566">
  <path id="Fill_1" data-name="Fill 1" d="M19,50.566a1.321,1.321,0,0,1-.532-.122,39.68,39.68,0,0,1-6.93-3.863A32.939,32.939,0,0,1,6.2,42.022,22.731,22.731,0,0,1,.951,33.433,18.068,18.068,0,0,1,.072,28.94c-.043-.7-.065-1.347-.066-1.972q0-4.651,0-9.3t0-9.3a.243.243,0,0,1,.191-.277,17.93,17.93,0,0,0,4.4-2.175,8,8,0,0,0,.912-.761,1.386,1.386,0,0,0,.48-1.189c-.031-.355,0-.362.318-.451l.011,0L17.557.376l.2-.057c.363-.1.739-.206,1.11-.3A.519.519,0,0,1,19.005,0a.469.469,0,0,1,.122.015c2.451.679,4.925,1.366,7.317,2.031l1.71.475.9.251c.905.252,1.842.513,2.766.767.143.039.213.09.2.26a2.346,2.346,0,0,0,.029.635,1.872,1.872,0,0,0,.669.938,10.117,10.117,0,0,0,1.84,1.264,20.039,20.039,0,0,0,3.246,1.45A.24.24,0,0,1,38,8.363c0,2.9,0,5.853,0,8.7v10.4a19.468,19.468,0,0,1-2.138,8.86,24.026,24.026,0,0,1-3.383,4.958,33.97,33.97,0,0,1-7.64,6.373,38.725,38.725,0,0,1-5.3,2.789A1.321,1.321,0,0,1,19,50.566Zm-.017-48.7a.28.28,0,0,0-.075.009q-2.543.7-5.085,1.413l-.026.007c-1.825.508-3.711,1.033-5.57,1.547a.417.417,0,0,0-.329.293,1.724,1.724,0,0,1-.166.331A6.28,6.28,0,0,1,5.924,7.3,17.764,17.764,0,0,1,2.3,9.233c-.1.04-.168.08-.168.224,0,3.214,0,6.482,0,9.641q0,4.285,0,8.57a17.337,17.337,0,0,0,.516,4.145A18.739,18.739,0,0,0,5.1,37.426a26.127,26.127,0,0,0,5.637,6.163,37.8,37.8,0,0,0,8.114,5.018.35.35,0,0,0,.146.035.367.367,0,0,0,.154-.037,37.214,37.214,0,0,0,3.9-2.064,33.14,33.14,0,0,0,7.369-5.922,21.366,21.366,0,0,0,3.935-5.912,17.188,17.188,0,0,0,1.492-6.793c.018-2.1.014-4.233.01-6.3q0-1.353,0-2.7V16.945c0-2.421,0-4.924.007-7.386a.335.335,0,0,0-.254-.365,16.9,16.9,0,0,1-3.708-2.028,5.347,5.347,0,0,1-1.879-2.178.255.255,0,0,0-.157-.116c-2.578-.72-5.348-1.492-8.717-2.429l-.315-.088c-.529-.148-1.075-.3-1.613-.446l-.016,0A.913.913,0,0,0,18.986,1.865Z"/>
</svg>
