<?xml version="1.0" encoding="utf-8"?>
<svg width="285px" height="314px" viewBox="0 0 285 314" version="1.1" xmlns:xlink="http://www.w3.org/1999/xlink" xmlns="http://www.w3.org/2000/svg">
  <desc>Created with Lunacy</desc>
  <defs>
    <linearGradient x1="0.9761293" y1="0.3655338" x2="0.2829356" y2="0.54295313" id="gradient_1">
      <stop offset="0" stop-color="#FBCCC4" />
      <stop offset="1" stop-color="#FB998A" />
    </linearGradient>
    <linearGradient x1="1.0792999" y1="0.5653074" x2="-0.27189615" y2="0.45160377" id="gradient_2">
      <stop offset="0" stop-color="#FDDD00" />
      <stop offset="1" stop-color="#FDEB6D" />
    </linearGradient>
    <linearGradient x1="1.0366354" y1="0.493371" x2="-0.04380978" y2="0.5042031" id="gradient_3">
      <stop offset="0" stop-color="#FBCCC4" />
      <stop offset="1" stop-color="#FB998A" />
    </linearGradient>
    <linearGradient x1="1.0556732" y1="0.49732867" x2="0.054898057" y2="0.5029592" id="gradient_4">
      <stop offset="0" stop-color="#FBCCC4" />
      <stop offset="1" stop-color="#FB998A" />
    </linearGradient>
    <linearGradient x1="1.0107307" y1="0.8188063" x2="-0.05199693" y2="0.2205904" id="gradient_5">
      <stop offset="0" stop-color="#EB1382" />
      <stop offset="1" stop-color="#FF6D98" />
    </linearGradient>
    <linearGradient x1="0.4204863" y1="0.31477538" x2="0.63875395" y2="1.4041908" id="gradient_6">
      <stop offset="0" stop-color="#FDDD00" />
      <stop offset="1" stop-color="#FDEB6D" />
    </linearGradient>
    <linearGradient x1="0.004960512" y1="0.5179451" x2="0.9998206" y2="0.48191747" id="gradient_7">
      <stop offset="0" stop-color="#FF0336" />
      <stop offset="1" stop-color="#FF5981" />
    </linearGradient>
    <linearGradient x1="0.16170292" y1="0.25162083" x2="0.9695608" y2="0.874031" id="gradient_8">
      <stop offset="0" stop-color="#FBCCC4" />
      <stop offset="1" stop-color="#FB998A" />
    </linearGradient>
    <linearGradient x1="0.52627134" y1="-0.70768046" x2="0.49284777" y2="0.86767596" id="gradient_9">
      <stop offset="0" stop-color="#FBCCC4" />
      <stop offset="1" stop-color="#FB998A" />
    </linearGradient>
    <linearGradient x1="0.41195562" y1="1.1882364" x2="0.55930316" y2="0.43422982" id="gradient_10">
      <stop offset="0" stop-color="#FBCCC4" />
      <stop offset="1" stop-color="#FB998A" />
    </linearGradient>
    <linearGradient x1="0.92470264" y1="0.46027693" x2="0.05355899" y2="0.5561956" id="gradient_11">
      <stop offset="0" stop-color="#FBCCC4" />
      <stop offset="1" stop-color="#FB998A" />
    </linearGradient>
    <linearGradient x1="0.04358086" y1="0.82888305" x2="2.0656314" y2="-0.24715745" id="gradient_12">
      <stop offset="0" stop-color="#FDDD00" />
      <stop offset="1" stop-color="#FDEB6D" />
    </linearGradient>
    <linearGradient x1="0.012116947" y1="0.5000177" x2="1.0000081" y2="0.5000177" id="gradient_13">
      <stop offset="0" stop-color="#000000" />
      <stop offset="1" stop-color="#727272" />
    </linearGradient>
    <linearGradient x1="-3.643724E-06" y1="0.49997994" x2="1.0000056" y2="0.49997994" id="gradient_14">
      <stop offset="0" stop-color="#000000" />
      <stop offset="1" stop-color="#7B7B7B" />
    </linearGradient>
    <path d="M0 0L273.467 0L273.467 70L0 70L0 0Z" id="path_1" />
    <path d="M44.6371 0.0658526C42.054 0.635768 39.8634 2.00027 38.4099 4.31625L38.4099 4.31625C36.9563 6.6332 36.658 9.15739 35.6689 11.6327L35.6689 11.6327C33.5767 16.8704 30.3164 21.146 27.0127 25.5871L27.0127 25.5871C26.6078 26.1324 26.202 26.7507 25.4905 26.8393L25.4905 26.8393C24.2749 26.9899 23.6133 25.884 23.0053 24.8758L23.0053 24.8758C21.7842 22.8518 20.6152 20.8695 19.1448 18.9641L19.1448 18.9641C13.903 12.1731 7.40856 7.0777 0 3.12558L0 3.12558C1.63974 10.2309 3.34444 16.8864 6.01497 23.7752L6.01497 23.7752C7.49961 27.6058 9.12059 32.0325 11.6209 35.4389L11.6209 35.4389C11.8762 35.7865 12.1773 36.1342 12.4939 36.4325L12.4939 36.4325C15.869 39.6079 19.6023 42.0309 23.6847 44.0709L23.6847 44.0709C25.8044 45.1299 27.9858 46.0591 30.3146 45.3202L30.3146 45.3202C32.0627 44.7657 33.2857 43.346 34.3041 41.7859L34.3041 41.7859C36.8154 37.9389 38.2955 33.5258 39.1094 29.0163L39.1094 29.0163C39.9238 24.5064 40.0002 20.209 40.5103 15.7359L40.5103 15.7359C40.6284 14.704 40.7629 13.7511 41.4107 12.9405L41.4107 12.9405C42.1743 11.9857 43.3918 11.7513 44.4093 11.192L44.4093 11.192C45.4263 10.6323 46.4388 9.72634 46.2169 8.41122L46.2169 8.41122C45.995 7.09611 44.7263 6.63853 43.7957 5.99114L43.7957 5.99114C42.8652 5.34423 41.8975 4.23055 42.5948 3.09072L42.5948 3.09072C43.0871 2.28644 44.0822 2.4288 44.8421 2.17604L44.8421 2.17604C45.6016 1.92377 46.3537 1.03863 45.7452 0.279874L45.7452 0.279874C45.5746 0.0663368 45.3545 0 45.1207 0L45.1207 0C44.9624 0 44.7982 0.0300211 44.6371 0.0658526" transform="translate(0.23973857 0.053263158)" id="path_2" />
    <path d="M6.61673 21.8325C8.54323 26.1295 9.94506 30.7165 12.9294 34.213L12.9294 34.213C14.5439 31.975 16.0022 29.5915 17.2742 27.119L17.2742 27.119C18.97 23.8335 20.289 20.409 21.3139 16.8675L21.3139 16.8675C15.8359 9.695 10.0269 3.6395 0 0L0 0C0 0 3.16409 14.0985 6.61673 21.8325" transform="translate(0.052418604 0.3615)" id="path_3" />
    <path d="M15.1229 0.467032C12.8547 0.810379 10.6075 1.61037 9.19896 3.74318L9.19896 3.74318C7.51853 6.28662 7.6136 9.00322 8.01637 12.2368L8.01637 12.2368C11.69 41.7439 5.97129 63.9289 0 92.2224L0 92.2224C0.868 93.1772 2.02993 93.3761 3.09403 92.6212L3.09403 92.6212C4.15813 91.8667 4.60361 90.9811 5.26265 89.7062L5.26265 89.7062C20.1445 60.9075 29.5212 40.4779 28.7905 6.70269L28.7905 6.70269C28.7019 2.61963 28.5439 2.13281 25.482 0.913284L25.482 0.913284C23.7814 0.236484 22.0022 0 20.2115 0L20.2115 0C18.5068 0 16.7914 0.214221 15.1229 0.467032" transform="translate(0.070725925 0.4472421)" id="path_4" />
    <path d="M3.75637 4.35899C-0.869695 9.71765 -0.202696 17.6464 0.49906 24.3938L0.49906 24.3938C3.39297 52.2347 6.28688 80.0756 9.1813 107.917L9.1813 107.917C9.1951 108.122 12.2837 109.502 13.0039 108.014L13.0039 108.014C13.6361 106.71 19.3248 70.8414 19.7823 56.0427L19.7823 56.0427C20.2213 41.8015 20.8592 27.4645 20.5162 13.2072L20.5162 13.2072C20.4017 8.43993 19.9484 2.48126 15.146 0.528347L15.146 0.528347C14.251 0.164005 13.3167 0 12.3763 0L12.3763 0C9.15473 0 5.85499 1.92718 3.75637 4.35899" transform="translate(0.4970955 0.29571298)" id="path_5" />
    <path d="M45.2492 0.00695954C39.5683 0.355931 33.8473 0.340023 28.1578 0.506058L28.1578 0.506058C25.24 0.591561 22.3221 0.677064 19.4038 0.762069L19.4038 0.762069C18.9374 0.775988 18.4633 0.772509 17.9859 0.770023L17.9859 0.770023C17.5998 0.767538 17.2123 0.765549 16.8257 0.772012L16.8257 0.772012C15.005 0.801838 13.2039 1.02255 11.7116 2.33393L11.7116 2.33393C7.751 5.81569 8.81186 13.3842 9.69974 18.2623L9.69974 18.2623C11.0349 25.5957 12.4824 32.4603 12.4298 40.0178L12.4298 40.0178C12.3227 55.2915 8.02386 70.5056 0 82.5555L0 82.5555C5.02429 82.908 10.0495 83.2599 15.0743 83.6124L15.0743 83.6124C15.6645 83.6541 16.2943 83.685 16.8004 83.3405L16.8004 83.3405C17.4125 82.9239 17.6787 82.0778 17.9009 81.2963L17.9009 81.2963C19.2652 76.5072 20.6668 71.7334 21.8935 66.8921L21.8935 66.8921C22.5888 64.1515 26.1355 54.8755 25.3312 52.036L25.3312 52.036C28.8679 62.6875 30.3474 74.2185 29.6273 85.5352L29.6273 85.5352C39.4656 84.7443 49.3039 83.9544 59.1413 83.164L59.1413 83.164C53.338 70.6597 53.9029 55.728 54.7774 41.6672L54.7774 41.6672C55.4746 30.45 56.2664 18.8648 53.7681 7.80413L53.7681 7.80413C52.5218 2.28521 50.5769 0 45.7304 0L45.7304 0C45.5727 0 45.4131 0.00248555 45.2492 0.00695954" transform="translate(0.19592534 0.2281734)" id="path_6" />
    <path d="M7.48443 7.73865C5.23142 10.7547 2.49837 15.5858 1.41364 19.7752L1.41364 19.7752C-0.992772 29.0682 0.910927 38.7953 0.0810974 48.7032L0.0810974 48.7032C-0.0307739 50.0361 -0.106771 51.5038 0.416711 52.6296L0.416711 52.6296C1.16346 54.2374 2.71833 54.3673 4.03483 54.3172L4.03483 54.3172C15.3428 53.8827 26.6272 52.7326 37.8445 50.87L37.8445 50.87C38.7484 50.7199 39.7496 50.488 40.2962 49.4405L40.2962 49.4405C40.713 48.6423 40.9741 47.5398 40.7777 46.5478L40.7777 46.5478C39.5683 40.4597 38.7607 36.6449 40.3283 30.1489L40.3283 30.1489C41.5943 24.9031 39.2766 19.3907 38.3807 14.1082L38.3807 14.1082C37.8431 10.941 37.1926 7.72428 35.8563 5.08527L35.8563 5.08527C34.5205 2.44577 32.3496 1.29423 30.1485 0.755631L30.1485 0.755631C28.5082 0.354775 26.2868 0 23.8016 0L23.8016 0C18.5281 0 12.0707 1.59797 7.48443 7.73865" transform="translate(0.019917194 0.27103603)" id="path_7" />
    <path d="M40.2776 0.00606667L1.94179 2.83873C0.798411 2.9232 -0.0729094 3.90693 0.00482251 5.02413L0.00482251 5.02413C0.0825544 6.1418 1.08132 6.98693 2.22425 6.90247L2.22425 6.90247L40.5606 4.0698C41.7039 3.98487 42.5753 3.0016 42.4975 1.8844L42.4975 1.8844C42.4234 0.818533 41.5114 0 40.4349 0L40.4349 0C40.3829 0 40.3305 0.00186667 40.2776 0.00606667" transform="translate(0.2830568 0.07)" id="path_8" />
    <path d="M28.1683 0.784303C23.3162 2.69467 18.8867 5.63812 15.0379 9.23247L15.0379 9.23247C14.1308 10.0806 13.2485 10.9608 12.4138 11.8858L12.4138 11.8858C11.8823 12.4432 11.3785 13.0333 10.8785 13.6306L10.8785 13.6306C6.49767 18.8646 3.1604 24.9745 0.68211 31.412L0.68211 31.412C0.508663 31.8604 0.343962 32.3083 0.178289 32.7572L0.178289 32.7572C0.133591 32.8779 0.0898651 33.0035 0.0495399 33.1286L0.0495399 33.1286C-0.0796948 34.0332 0.0495399 34.9898 0.371655 35.8705L0.371655 35.8705C1.11354 36.5448 2.38694 36.5127 3.43102 36.3267L3.43102 36.3267C7.50969 35.5959 10.9189 34.0249 14.4893 32.1389L14.4893 32.1389C14.7357 32.0099 14.9815 31.8765 15.2312 31.7431L15.2312 31.7431C18.7939 29.8332 22.0384 27.3294 24.815 24.3489L24.815 24.3489C25.1774 23.9609 25.5282 23.5734 25.8795 23.1615L25.8795 23.1615C26.7496 22.1518 27.5634 21.0817 28.3174 19.979L28.3174 19.979C28.5346 19.6762 28.7401 19.3612 28.9461 19.0423L28.9461 19.0423C31.4448 15.1496 33.222 10.7996 34.6164 6.35329L34.6164 6.35329C35.1081 4.77008 35.5196 2.92057 34.6203 1.52722L34.6203 1.52722C33.9639 0.513618 32.7386 0.0209342 31.5653 0.000973684L31.5653 0.000973684C31.5299 0 31.4939 0 31.4584 0L31.4584 0C30.324 0 29.2231 0.372921 28.1683 0.784303" transform="translate(0.01556325 0.15725)" id="path_9" />
    <path d="M1.21658 1.30102C0.995851 1.52551 0.809651 1.77092 0.655184 2.03316L0.655184 2.03316C0.326184 2.57908 0.128318 3.19286 0.0475844 3.83214L0.0475844 3.83214C-0.0765489 4.7801 0.0475844 5.78265 0.356984 6.70561L0.356984 6.70561C0.403651 6.85357 0.457784 7.00204 0.515651 7.14592L0.515651 7.14592C1.30152 9.07551 2.77292 10.5949 4.39878 11.7633L4.39878 11.7633C9.28012 15.2592 14.8428 17.1888 20.4405 18.5811L20.4405 18.5811C26.0381 19.974 31.4501 20.8709 36.6954 23.076L36.6954 23.076C37.6054 23.4566 38.325 24.1679 39.3587 24.0536L39.3587 24.0536C40.6751 23.9143 41.6122 22.949 41.8675 21.5735L41.8675 21.5735C42.1265 20.198 41.3873 18.9923 40.2994 18.3531L40.2994 18.3531C39.7884 18.0526 39.018 17.9974 38.6582 17.8362L38.6582 17.8362C38.2984 17.6755 37.5741 17.5281 37.8723 17.1597L37.8723 17.1597C38.3021 16.6301 40.2141 17.1806 40.3069 16.2791L40.3069 16.2791C40.516 14.2602 36.4401 15.0347 35.503 15.1194L35.503 15.1194C33.3816 15.3143 31.7016 14.1801 30.2848 13.2316L30.2848 13.2316C26.348 10.599 22.7127 8.1148 18.9387 5.69031L18.9387 5.69031C17.2471 4.60204 15.6016 3.62857 13.9174 2.7949L13.9174 2.7949C11.5024 1.58878 9.02018 0.683163 6.25285 0.17551L6.25285 0.17551C5.67185 0.0688775 5.09505 0 4.53412 0L4.53412 0C3.31238 0 2.16625 0.326531 1.21658 1.30102" transform="translate(0.014948911 0.4387755)" id="path_10" />
    <path d="M4.29067 0.725C3.82867 1.1995 3.49478 1.813 3.16759 2.4185L3.16759 2.4185C2.44847 3.747 1.72936 5.075 1.0098 6.404L1.0098 6.404C0.369698 7.586 -0.293618 8.9975 0.137582 10.304L0.137582 10.304C0.42237 11.1665 1.12497 11.747 1.8298 12.1875L1.8298 12.1875C3.27918 13.0935 4.94997 13.6365 6.57925 13.3695L6.57925 13.3695C7.85633 13.161 10.2819 12.024 9.91814 10.131L9.91814 10.131C9.73692 9.1835 9.34723 8.2445 9.12627 7.2985L9.12627 7.2985C8.82006 5.9885 8.51429 4.679 8.20807 3.369L8.20807 3.369C8.03934 2.6455 7.8657 1.9105 7.52065 1.275L7.52065 1.275C7.17605 0.6395 6.6279 0.107 5.98333 0.0145L5.98333 0.0145C5.91504 0.0045 5.8463 0 5.778 0L5.778 0C5.23297 0 4.70089 0.303 4.29067 0.725" transform="translate(0.1949687 0.17)" id="path_11" />
    <path d="M8.35155 0.151381C6.33632 0.683048 4.6321 2.27543 3.24481 4.08257L3.24481 4.08257C1.84978 5.89967 0.679838 8.03052 0.209223 10.4259L0.209223 10.4259C-0.261393 12.8218 0.0414381 15.5074 1.32642 17.4481L1.32642 17.4481C2.40725 19.0808 4.05145 20.0404 5.69246 20.7612L5.69246 20.7612C7.27073 21.4542 8.94448 21.9827 10.6187 21.8088L10.6187 21.8088C12.2924 21.6354 13.9757 20.6575 14.8028 18.9273L14.8028 18.9273C15.3285 17.8289 15.5449 16.4162 16.4466 15.7441L16.4466 15.7441C16.7153 15.5435 17.0404 15.4152 17.2241 15.1082L17.2241 15.1082C17.3969 14.8175 17.4024 14.4346 17.3955 14.0784L17.3955 14.0784C17.3578 12.2058 17.1518 10.3374 16.7863 8.51348L16.7863 8.51348C16.3616 6.39467 15.7977 3.28848 14.2631 1.84381L14.2631 1.84381C13.055 0.706095 11.2248 0 9.58743 0L9.58743 0C9.15728 0 8.74032 0.0492381 8.35155 0.151381" transform="translate(0.09497221 0.15190476)" id="path_12" />
    <path d="M16.2533 0.868921C11.2447 2.977 6.67479 6.22024 2.70525 10.1894L2.70525 10.1894C1.77001 11.1223 0.860496 12.0952 0 13.1128L0 13.1128C3.13283 17.1475 6.79515 20.6903 10.8389 23.5872L10.8389 23.5872C11.8281 24.2949 12.8439 24.9668 13.8907 25.5538L13.8907 25.5538C14.7886 24.4416 15.6282 23.2601 16.4052 22.0428L16.4052 22.0428C16.6324 21.7084 16.8435 21.3595 17.0541 21.0106L17.0541 21.0106C19.6312 16.7164 21.4687 11.9174 22.9072 7.01168L22.9072 7.01168C23.4144 5.26344 23.8381 3.22556 22.9077 1.68584L22.9077 1.68584C22.2302 0.570441 20.9698 0.0270405 19.7599 0.00104049L19.7599 0.00104049C19.7239 4.89427e-07 19.6875 4.89427e-07 19.6511 4.89427e-07L19.6511 4.89427e-07C18.4796 -0.000519511 17.3434 0.4134 16.2533 0.868921" transform="translate(0.38486934 0.2667595)" id="path_13" />
    <path d="M0.323104 0.2618C0.323104 0.2618 -0.196646 3.28953 0.0822647 3.99513L0.0822647 3.99513C0.17552 4.23173 0.767992 4.74227 1.68215 5.2388L1.68215 5.2388C1.86096 5.33587 2.03208 5.15527 2.00684 4.89627L2.00684 4.89627L1.94823 4.31013C1.90759 3.93073 2.06844 3.6204 2.31013 3.56067L2.31013 3.56067C2.33494 3.5546 2.36232 3.54807 2.38884 3.54947L2.38884 3.54947C2.56979 3.549 4.30015 4.80713 5.52403 5.81933L5.52403 5.81933C6.09254 6.28927 6.73164 6.5198 7.34764 6.45167L7.34764 6.45167C8.03594 6.3756 8.73749 6.20667 9.4352 5.91827L9.4352 5.91827C9.45445 5.9094 9.65337 5.74653 9.65337 5.74653L9.65337 5.74653C9.81849 5.60793 9.79624 5.23973 9.61187 5.07267L9.61187 5.07267C8.6545 4.228 6.31156 2.15647 5.80465 1.70333L5.80465 1.70333C5.30971 1.26373 4.95252 1.0094 4.77071 0.8932L4.77071 0.8932C4.68644 0.839533 4.59831 0.8456 4.52944 0.905333L4.52944 0.905333C4.07472 1.3118 2.23784 2.72627 0.952365 0.237067L0.952365 0.237067C0.915576 0.1638 0.865098 0.1092 0.808631 0.0765333L0.808631 0.0765333C0.742326 0.0396667 0.650354 0 0.563942 0L0.563942 0C0.456998 0 0.357754 0.0606667 0.323104 0.2618" transform="translate(0.23471864 0.16193333)" id="path_14" />
    <path d="M0.0211262 0.3675C0.0211262 0.3675 -0.103716 4.645 0.253564 5.648L0.253564 5.648C0.373068 5.9855 1.00878 6.7165 1.95331 7.4335L1.95331 7.4335C2.13811 7.574 2.28061 7.321 2.22353 6.954L2.22353 6.954L2.09417 6.1225C2.00834 5.5855 2.12456 5.1485 2.35002 5.068L2.35002 5.068C2.37343 5.059 2.3993 5.05 2.42476 5.0525L2.42476 5.0525C2.59929 5.0545 4.42676 6.863 5.73432 8.3145L5.73432 8.3145C6.3417 8.9885 6.98727 9.325 7.57329 9.238L7.57329 9.238C8.22871 9.1405 8.88455 8.9115 9.52231 8.514L9.52231 8.514C9.53956 8.502 9.71163 8.2745 9.71163 8.2745L9.71163 8.2745C9.85331 8.0805 9.78637 7.5595 9.58761 7.3205L9.58761 7.3205C8.55807 6.1095 6.03739 3.141 5.49244 2.492L5.49244 2.492C4.95939 1.8615 4.58281 1.4965 4.39308 1.3285L4.39308 1.3285C4.30479 1.2515 4.22019 1.258 4.16188 1.3425L4.16188 1.3425C3.77339 1.911 2.17589 3.885 0.624806 0.3415L0.624806 0.3415C0.580454 0.237 0.525014 0.159 0.465878 0.1115L0.465878 0.1115C0.396476 0.0585 0.302022 0 0.217425 0L0.217425 0C0.11558 0 0.0289289 0.085 0.0211262 0.3675" transform="translate(0.38502315 0.4525)" id="path_15" />
    <clipPath id="mask_1">
      <use xlink:href="#path_1" />
    </clipPath>
    <clipPath id="mask_2">
      <use xlink:href="#path_2" />
    </clipPath>
    <clipPath id="mask_3">
      <use xlink:href="#path_3" />
    </clipPath>
    <clipPath id="mask_4">
      <use xlink:href="#path_4" />
    </clipPath>
    <clipPath id="mask_5">
      <use xlink:href="#path_5" />
    </clipPath>
    <clipPath id="mask_6">
      <use xlink:href="#path_6" />
    </clipPath>
    <clipPath id="mask_7">
      <use xlink:href="#path_7" />
    </clipPath>
    <clipPath id="mask_8">
      <use xlink:href="#path_8" />
    </clipPath>
    <clipPath id="mask_9">
      <use xlink:href="#path_9" />
    </clipPath>
    <clipPath id="mask_10">
      <use xlink:href="#path_10" />
    </clipPath>
    <clipPath id="mask_11">
      <use xlink:href="#path_11" />
    </clipPath>
    <clipPath id="mask_12">
      <use xlink:href="#path_12" />
    </clipPath>
    <clipPath id="mask_13">
      <use xlink:href="#path_13" />
    </clipPath>
    <clipPath id="mask_14">
      <use xlink:href="#path_14" />
    </clipPath>
    <clipPath id="mask_15">
      <use xlink:href="#path_15" />
    </clipPath>
  </defs>
  <g id="step-img-01" transform="translate(1.7590332 1.7590332)">
    <g id="Group-6" transform="translate(6.5333333 240)">
      <g id="Group-3">
        <path d="M0 0L273.467 0L273.467 70L0 70L0 0Z" id="Clip-2" fill="none" fill-rule="evenodd" stroke="none" />
        <g clip-path="url(#mask_1)">
          <path d="M14.7649 17.3762C4.097 13.1551 -0.265424 9.37154 0.0124342 6.94374C0.289905 4.51595 5.37042 2.0225 16.6607 0.801828C49.5465 -2.75473 277.957 4.44691 273.399 44.2959C268.841 84.1448 45.8378 29.6715 14.7649 17.3762Z" id="Fill-1" fill="#E3EDFD" fill-rule="evenodd" stroke="none" />
        </g>
      </g>
      <path d="M59.5696 16.005C58.2931 32.2535 21.4892 26.4918 8.25274 19.4856C2.39782 16.3862 -0.211813 12.5841 0.0133925 9.71698C0.238598 6.84982 3.3975 3.65673 9.63965 1.83467C23.7494 -2.2844 60.846 -0.243549 59.5696 16.005" transform="translate(8.764957 41.62162)" id="Fill-4" fill="#E3EDFD" fill-rule="evenodd" stroke="none" />
    </g>
    <g id="Group-157">
      <path d="M2.73357 201.349C1.22731 201.15 0 199.313 0 197.265L0 33.7305C0 31.6825 1.22731 29.8448 2.73357 29.6469L227.605 0.0423555C230.343 -0.317975 232.597 1.66109 232.597 4.44279L232.597 226.553C232.597 229.335 230.343 231.314 227.605 230.953L2.73357 201.349Z" transform="translate(39.659 47.651276)" id="Fill-28" fill="#F8F8F8" fill-rule="evenodd" stroke="none" />
      <path d="M225.044 20.9552L2.7411 44.4851C1.2306 44.6451 0 43.0973 0 41.0463L0 32.9671C0 30.916 1.2306 29.0784 2.7411 28.8825L225.044 0.041028C227.773 -0.313306 230.018 1.66726 230.018 4.44346L230.018 15.3808C230.018 18.157 227.773 20.6663 225.044 20.9552" transform="translate(40.56751 49.54336)" id="Fill-30" fill="#ECE9E9" fill-rule="evenodd" stroke="none" />
      <path d="M4.83208 2.96659C4.83208 4.76275 3.74401 6.3425 2.4071 6.49443C1.07536 6.64586 0 5.32248 0 3.53932C0 1.75666 1.07536 0.178401 2.4071 0.0139785C3.74401 -0.151444 4.83208 1.17043 4.83208 2.96659" transform="translate(46.472225 81.78037)" id="Fill-32" fill="#FF6161" fill-rule="evenodd" stroke="none" />
      <path d="M4.95298 3.0005C4.95298 4.81914 3.83763 6.41989 2.46731 6.57582C1.10218 6.73075 0 5.39288 0 3.58772C0 1.78257 1.10218 0.183324 2.46731 0.014403C3.83763 -0.154518 4.95298 1.18185 4.95298 3.0005" transform="translate(54.599876 80.76817)" id="Fill-34" fill="#FFD140" fill-rule="evenodd" stroke="none" />
      <path d="M5.07858 3.03457C5.07858 4.8762 3.935 6.49894 2.52988 6.65887C1.1304 6.81779 0 5.46443 0 3.63729C0 1.80915 1.1304 0.187907 2.52988 0.0149885C3.935 -0.15843 5.07858 1.19293 5.07858 3.03457" transform="translate(62.931355 79.73093)" id="Fill-36" fill="#91EF7B" fill-rule="evenodd" stroke="none" />
      <path d="M16.4165 9.25187C16.4057 14.7893 12.6584 19.5415 8.09771 19.8624C3.59303 20.1797 -0.0103268 16.0442 2.22365e-05 10.6287C0.0103713 5.21327 3.6302 0.471495 8.13534 0.0327014C12.6965 -0.41109 16.4268 3.71397 16.4165 9.25187" transform="translate(117.66094 89.45803)" id="Fill-38" fill="#DBE9FF" fill-rule="evenodd" stroke="none" />
      <path d="M18.1721 9.86336C18.1603 15.6926 14.008 20.6293 8.95809 20.8872C3.9736 21.1411 -0.011266 16.7291 2.39306e-05 11.0353C0.0113138 5.34099 4.015 0.413305 9.00043 0.0244876C14.0508 -0.369327 18.1838 4.0336 18.1721 9.86336" transform="translate(155.12419 100.7328)" id="Fill-40" fill="#DBE9FF" fill-rule="evenodd" stroke="none" />
      <path d="M20.0918 10.5982C20.0787 16.7308 15.4837 21.813 9.89845 21.9474C4.38898 22.0798 -0.0122053 17.3356 2.54297e-05 11.3524C0.0122562 5.36918 4.43508 0.293068 9.94502 0.0122003C15.5307 -0.272666 20.1045 4.46561 20.0918 10.5982" transform="translate(194.01688 119.57319)" id="Fill-42" fill="#DBE9FF" fill-rule="evenodd" stroke="none" />
      <path d="M18.6655 10.6292C18.6538 16.5374 14.3876 21.2427 9.20036 21.1413C4.08039 21.0408 -0.011735 16.2831 2.52848e-05 10.5143C0.0117856 4.74499 4.12319 0.0377023 9.24364 0.000219933C14.4313 -0.0372625 18.6778 4.721 18.6655 10.6292" transform="translate(165.3184 155.36275)" id="Fill-44" fill="#DBE9FF" fill-rule="evenodd" stroke="none" />
      <path d="M24.2164 14.5083C24.2004 22.6374 18.6288 29.1074 11.8831 28.9615C5.25783 28.8185 -0.0145526 22.3256 3.01776e-05 14.4568C0.0150834 6.58797 5.31287 0.117014 11.9391 0.00156822C18.6858 -0.115877 24.2324 6.37807 24.2164 14.5083" transform="translate(121.02645 148.18233)" id="Fill-46" fill="#DBE9FF" fill-rule="evenodd" stroke="none" />
      <path d="M21.3652 10.6211C21.3516 16.9482 16.4621 22.3376 10.5218 22.6545C4.66464 22.9673 -0.0131438 18.2176 2.77477e-05 12.0495C0.0131993 5.88137 4.71356 0.503894 10.5716 0.0331157C16.5129 -0.44416 21.3793 4.29361 21.3652 10.6211" transform="translate(218.78523 93.66159)" id="Fill-48" fill="#DBE9FF" fill-rule="evenodd" stroke="none" />
      <path d="M18.7276 2.49106L0.9921 3.682C0.446422 3.71849 0 3.20223 0 2.53504C0 1.86786 0.446422 1.29063 0.9921 1.25214L18.7276 0.00223236C19.3015 -0.0387484 19.7714 0.489503 19.7714 1.17468C19.7714 1.86036 19.3015 2.45258 18.7276 2.49106" transform="translate(115.673 110.698135)" id="Fill-50" fill="#DBE9FF" fill-rule="evenodd" stroke="none" />
      <path d="M25.3044 2.85788L1.29411 4.01084C0.581901 4.04482 0 3.4496 0 2.68746C0 1.92532 0.581901 1.27162 1.29411 1.23514L25.3044 0.00172069C26.0595 -0.0367612 26.679 0.574951 26.679 1.36158C26.679 2.14821 26.0595 2.8214 25.3044 2.85788" transform="translate(218.79951 119.28631)" id="Fill-52" fill="#DBE9FF" fill-rule="evenodd" stroke="none" />
      <path d="M19.7428 2.90781L1.01327 2.45602C0.45583 2.44253 0 1.8793 0 1.20511C0 0.53093 0.45583 -0.0113152 1.01327 0.000179429L19.7428 0.389496C20.3303 0.401491 20.8115 0.979219 20.8115 1.67239C20.8115 2.36607 20.3303 2.92181 19.7428 2.90781" transform="translate(122.616295 178.40926)" id="Fill-54" fill="#DBE9FF" fill-rule="evenodd" stroke="none" />
      <path d="M53.342 162.342L2.75097 155.875C1.23483 155.681 0 153.843 0 151.788L0 9.21654C0 7.162 1.23483 5.35435 2.75097 5.19892L53.342 0.0133617C55.1098 -0.167553 56.5624 1.51016 56.5624 3.74311L56.5624 158.694C56.5624 160.927 55.1098 162.568 53.342 162.342" transform="translate(41.706802 90.896)" id="Fill-56" fill="#A2C6FF" fill-rule="evenodd" stroke="none" />
      <path d="M159.99 83.4667L3.28019 63.5096C1.47192 63.2792 0 61.2567 0 59.0137L0 3.95411C0 1.71067 1.47192 -0.0674992 3.28019 0.00196816L159.99 6.03013C162.693 6.13409 164.917 8.48048 164.917 11.2437L164.917 79.0703C164.917 81.833 162.693 83.8106 159.99 83.4667Z" transform="translate(101.51997 190.63338)" id="Stroke-58" fill="none" fill-rule="evenodd" stroke="#A2C6FF" stroke-width="0.83" />
      <path d="M15.7842 22.0922L2.77214 22.8788C1.24471 22.9712 0 21.359 0 19.2965L0 5.23408C0 3.17155 1.24471 1.3679 2.77214 1.22497L15.7842 0.00953698C17.3803 -0.139393 18.6923 1.47385 18.6923 3.59485L18.6923 18.0591C18.6923 20.1806 17.3803 21.9957 15.7842 22.0922" transform="translate(44.22732 100.57204)" id="Fill-60" fill="#FFFFFF" fill-rule="evenodd" stroke="none" />
      <path d="M47.6646 3.35554L1.15298 5.72243C0.518395 5.75492 0 5.07773 0 4.21864L0 4.21814C0 3.35854 0.518395 2.62639 1.15298 2.5909L47.6646 0.00162113C48.3937 -0.0388598 48.9916 0.6838 48.9916 1.60787C48.9916 2.53193 48.3937 3.31856 47.6646 3.35554" transform="translate(44.457493 124.07521)" id="Fill-62" fill="#FFFFFF" fill-rule="evenodd" stroke="none" />
      <path d="M23.118 3.23753L1.15298 4.1561C0.518395 4.18258 0 3.5009 0 2.64131C0 1.78121 0.518395 1.05405 1.15298 1.02457L23.118 0.00104798C23.7972 -0.030937 24.3537 0.673232 24.3537 1.56481C24.3537 2.45639 23.7972 3.20904 23.118 3.23753" transform="translate(44.4574 131.59184)" id="Fill-64" fill="#FFFFFF" fill-rule="evenodd" stroke="none" />
      <path d="M41.1517 15.1172L2.97818 15.2356C1.33691 15.2411 0 13.4959 0 11.3584L0 4.88048C0 2.74299 1.33691 0.961826 2.97818 0.922344L41.1517 0.000777598C42.9915 -0.0432017 44.5034 1.78394 44.5034 4.06187L44.5034 10.9651C44.5034 13.2431 42.9915 15.1117 41.1517 15.1172" transform="translate(83.287994 127.97227)" id="Fill-66" fill="#DBE9FF" fill-rule="evenodd" stroke="none" />
      <path d="M29.0423 16.8228L6.59283 14.087C2.95372 13.6438 0 10.1469 0 6.3127C0 2.4785 2.95372 -0.347672 6.59283 0.0346479L29.0423 2.39454C32.9124 2.80185 36.1046 6.41015 36.1046 10.4103L36.1046 10.4103C36.1046 14.4104 32.9124 17.2945 29.0423 16.8228Z" transform="translate(223.89287 251.44466)" id="Stroke-68" fill="none" fill-rule="evenodd" stroke="#A2C6FF" stroke-width="0.83" />
      <path d="M0 5.63535L2.95419 10.0963L13.8268 0" transform="translate(236.71745 252.15163)" id="Stroke-70" fill="none" fill-rule="evenodd" stroke="#A2C6FF" stroke-width="3.518" stroke-linecap="round" />
      <path d="M0 0C1.70572 3.84969 4.84008 6.72284 8.49001 7.75685C12.1766 8.80086 16.3473 7.95876 19.7573 5.45544" transform="translate(134.73253 103.63189)" id="Stroke-72" fill="none" fill-rule="evenodd" stroke="#A2C6FF" stroke-width="0.83" stroke-linecap="round" />
      <path d="M0 0.151285C4.44399 -0.428443 9.00652 0.669041 12.7835 3.25333C16.5957 5.8621 19.5701 9.96067 21.1004 14.7414" transform="translate(173.78827 108.03806)" id="Stroke-74" fill="none" fill-rule="evenodd" stroke="#A2C6FF" stroke-width="0.83" stroke-linecap="round" />
      <path d="M0 7.70588C3.61983 7.06918 6.87555 3.87668 7.83049 0" transform="translate(212.16045 114.188675)" id="Stroke-76" fill="none" fill-rule="evenodd" stroke="#A2C6FF" stroke-width="0.83" stroke-linecap="round" />
      <path d="M23.6928 0C22.5624 1.94708 20.4084 2.87165 18.3644 3.11304C16.3313 3.35392 14.2973 3.04907 12.2787 3.16751C9.28642 3.34343 6.30918 4.49639 4.01356 6.64338C1.73112 8.77887 0.167467 11.9364 0 15.2458" transform="translate(171.48729 139.54521)" id="Stroke-78" fill="none" fill-rule="evenodd" stroke="#A2C6FF" stroke-width="0.83" stroke-linecap="round" />
      <path d="M16.6893 2.16448C10.9983 2.50682 5.33636 1.76467 0 0" transform="translate(146.45682 167.37198)" id="Stroke-80" fill="none" fill-rule="evenodd" stroke="#A2C6FF" stroke-width="0.83" stroke-linecap="round" />
      <path d="M11.4536 0.684758L1.22873 0.00207905C0.608256 -0.0394014 0.104444 0.544824 0.101621 1.30647L1.19009e-05 28.0624C-0.00281058 28.824 0.496768 29.4952 1.1163 29.5622L11.3384 30.6632C11.9767 30.7321 12.4979 30.1599 12.5008 29.3853L12.6057 2.16506C12.6085 1.39043 12.0924 0.727238 11.4536 0.684758" transform="translate(111.48274 207.25015)" id="Fill-82" fill="#DBE9FF" fill-rule="evenodd" stroke="none" />
      <path d="M12.5055 3.06732L0.879672 2.11977C0.395617 2.08079 0 1.57252 0 0.990798C0 0.409071 0.395617 -0.0357195 0.879672 0.00226269L12.5055 0.916333C13.005 0.955315 13.4148 1.47257 13.4148 2.06479C13.4148 2.65702 13.005 3.1083 12.5055 3.06732" transform="translate(128.05164 221.21075)" id="Fill-86" fill="#DBE9FF" fill-rule="evenodd" stroke="none" />
      <path d="M104.247 44.1886L5.54794 36.5977C2.48954 36.3623 0 33.9919 0 31.3287L0 4.62023C0 1.95698 2.48954 -0.120045 5.54794 0.00539628L104.247 4.048C107.951 4.19943 111 6.74223 111 9.69734L111 39.3349C111 42.29 107.951 44.4735 104.247 44.1886" transform="translate(150.5098 204.82883)" id="Fill-88" fill="#DBE9FF" fill-rule="evenodd" stroke="none" />
      <path d="M2.36194 1.40878C2.36194 2.14143 1.83179 2.69817 1.17885 2.65169C0.527803 2.60521 0 1.97551 0 1.24535C0 0.514697 0.527803 -0.0415411 1.17885 0.00243821C1.83179 0.0464175 2.36194 0.676122 2.36194 1.40878" transform="translate(181.08907 216.69885)" id="Fill-90" fill="#A2C6FF" fill-rule="evenodd" stroke="none" />
      <path d="M2.46779 1.45897C2.46779 2.20811 1.91411 2.76885 1.23201 2.71188C0.551324 2.6554 0 2.00371 0 1.25706C0 0.510912 0.551324 -0.0508245 1.23201 0.00364993C1.91411 0.0586241 2.46779 0.709818 2.46779 1.45897" transform="translate(198.62553 227.94511)" id="Fill-92" fill="#A2C6FF" fill-rule="evenodd" stroke="none" />
      <path d="M2.60185 1.47568C2.60185 2.24482 2.01807 2.83005 1.29834 2.78307C0.58096 2.73659 0 2.0774 0 1.31026C0 0.54362 0.58096 -0.0421045 1.29834 0.00237459C2.01807 0.0473535 2.60185 0.706544 2.60185 1.47568" transform="translate(220.27934 214.5897)" id="Fill-94" fill="#A2C6FF" fill-rule="evenodd" stroke="none" />
      <path d="M2.79096 1.54365C2.79096 2.34027 2.16484 2.93999 1.39336 2.88352C0.623767 2.82655 0 2.13737 0 1.34374C0 0.549616 0.623767 -0.0506017 1.39336 0.00337295C2.16484 0.0573476 2.79096 0.747023 2.79096 1.54365" transform="translate(249.82776 223.4172)" id="Fill-96" fill="#A2C6FF" fill-rule="evenodd" stroke="none" />
      <path d="M0 2.84386C4.27935 8.21684 10.5443 14.3235 17.5967 14.1196C26.5318 13.8612 29.2724 3.77493 39.327 0.791329C45.2227 -0.957849 54.4714 -0.52955 68.9837 9.66466" transform="translate(182.43718 215.0044)" id="Stroke-98" fill="none" fill-rule="evenodd" stroke="#A2C6FF" stroke-width="0.83" />
      <path d="M10.2192 15.73L4.51126 15.7915C2.02419 15.818 0 13.6885 0 11.0587L0 5.08303C0 2.45377 2.02419 0.242808 4.51126 0.169342L10.2192 0.00192103C12.7552 -0.0730437 14.8415 2.05546 14.8415 4.7317L14.8415 10.8143C14.8415 13.4906 12.7552 15.7025 10.2192 15.73" transform="translate(224.00096 138.3452)" id="Fill-103" fill="#DBE9FF" fill-rule="evenodd" stroke="none" />
      <path d="M10.9879 16.3154L4.84901 16.3814C2.17566 16.4099 0 14.2029 0 11.4772L0 5.28163C0 2.55541 2.17566 0.260986 4.84901 0.182523L10.9879 0.00210756C13.7168 -0.0778548 15.9616 2.12761 15.9616 4.9038L15.9616 11.2138C15.9616 13.9905 13.7168 16.286 10.9879 16.3154" transform="translate(254.62366 137.4223)" id="Fill-105" fill="#DBE9FF" fill-rule="evenodd" stroke="none" />
      <path d="M10.5881 16.012L4.67355 15.906C2.09663 15.8595 0 13.6326 0 10.9564L0 4.87371C0 2.19747 2.09663 0.0064977 4.67355 0.00449864L10.5881 7.56267e-07C13.2167 -0.00149854 15.3797 2.22645 15.3797 4.95117L15.3797 11.1438C15.3797 13.8685 13.2167 16.059 10.5881 16.012" transform="translate(238.84248 162.53296)" id="Fill-109" fill="#DBE9FF" fill-rule="evenodd" stroke="none" />
      <path d="M0 1.56212C3.96323 -0.437941 8.78496 -0.527899 12.8056 1.35272" transform="translate(239.80594 141.76256)" id="Stroke-113" fill="none" fill-rule="evenodd" stroke="#A2C6FF" stroke-width="0.83" stroke-linecap="round" />
      <path d="M13.9021 0.274871C9.21868 0.257879 4.58464 0.241886 0 0.224894" transform="translate(255.7709 169.86215)" id="Stroke-119" fill="none" fill-rule="evenodd" stroke="#A2C6FF" stroke-width="0.83" stroke-linecap="round" />
      <path d="M15.0212 1.21645L0.560732 1.3234C0.252141 1.32589 0 1.05902 0 0.730174C0 0.401828 0.252141 0.130956 0.560732 0.127957L15.0212 1.71197e-05C15.3411 -0.00248171 15.6022 0.268891 15.6022 0.603234C15.6022 0.938076 15.3411 1.21395 15.0212 1.21645" transform="translate(223.6275 155.64897)" id="Fill-121" fill="#DBE9FF" fill-rule="evenodd" stroke="none" />
      <path d="M15.566 1.52838L0.58143 1.21703C0.26155 1.21053 0 0.931161 0 0.596818C0 0.262475 0.26155 -0.00589859 0.58143 9.85882e-05L15.566 0.289962C15.8971 0.296459 16.1681 0.580826 16.1681 0.921665C16.1681 1.26201 15.8971 1.53538 15.566 1.52838" transform="translate(238.45525 179.57515)" id="Fill-123" fill="#DBE9FF" fill-rule="evenodd" stroke="none" />
      <path d="M63.6835 13.6756L5.95354 20.365C2.72651 20.7393 0 18.1155 0 14.5227L0 6.90128C0 3.30847 2.72651 0.353362 5.95354 0.334871L63.6835 2.84479e-05C65.1442 -0.00846756 66.3141 1.88714 66.3141 4.21205L66.3141 9.14373C66.3141 11.4686 65.1442 13.5067 63.6835 13.6756" transform="translate(61.431026 36.466667)" id="Fill-127" fill="#A2C6FF" fill-rule="evenodd" stroke="none" />
      <path d="M14.0174 11.6434L2.83941 11.3521C1.29364 11.3116 0 9.25806 0 6.78972L0 4.17095C0 1.70261 1.29364 -0.167512 2.83941 0.0119041L14.0174 1.3068C15.2724 1.45223 16.2791 3.33434 16.2791 5.49133L16.2791 7.77975C16.2791 9.93724 15.2724 11.6759 14.0174 11.6434" transform="translate(128.12756 20.722647)" id="Fill-129" fill="#A2C6FF" fill-rule="evenodd" stroke="none" />
      <path d="M9.78647 8.65745L2.17425 9.34113C0.988808 9.44758 0 7.77136 0 5.61388L0 3.97915C0 1.82166 0.988808 0.0509931 2.17425 0.0439964L9.78647 1.70243e-05C10.7936 -0.00598016 11.6032 1.57328 11.6032 3.50887L11.6032 4.97518C11.6032 6.91077 10.7936 8.56699 9.78647 8.65745" transform="translate(144.40657 35.964127)" id="Fill-131" fill="#A2C6FF" fill-rule="evenodd" stroke="none" />
      <path d="M0 3.74274C0 1.67571 1.57729 0 3.52292 0C5.46855 0 7.04584 1.67571 7.04584 3.74274C7.04584 5.80977 5.46855 7.48548 3.52292 7.48548C1.57729 7.48548 0 5.80977 0 3.74274ZM1.36373 3.74274C1.36373 5.00915 2.3309 6.03666 3.52292 6.03666C4.71495 6.03666 5.68212 5.00915 5.68212 3.74274C5.68212 2.47634 4.71495 1.44882 3.52292 1.44882C2.3309 1.44882 1.36373 2.47634 1.36373 3.74274Z" transform="translate(100.09161 0.21669511)" id="Fill-135" fill="#A2C6FF" fill-rule="evenodd" stroke="none" />
      <path d="M0 4.86521C0 2.17848 2.05053 0 4.57947 0C7.10841 0 9.15894 2.17848 9.15894 4.86521C9.15894 7.55245 7.10841 9.73093 4.57947 9.73093C2.05053 9.73093 0 7.55245 0 4.86521ZM1.77252 4.86521C1.77252 6.51194 3.02993 7.84731 4.57947 7.84731C6.12901 7.84731 7.38642 6.51194 7.38642 4.86521C7.38642 3.21899 6.12901 1.88311 4.57947 1.88311C3.02993 1.88311 1.77252 3.21899 1.77252 4.86521Z" transform="translate(0.0442259 67.20991)" id="Fill-139" fill="#A2C6FF" fill-rule="evenodd" stroke="none" />
      <path d="M0 4.86521C0 2.17848 2.05053 0 4.57947 0C7.10841 0 9.15894 2.17848 9.15894 4.86521C9.15894 7.55245 7.10841 9.73093 4.57947 9.73093C2.05053 9.73093 0 7.55245 0 4.86521ZM1.77252 4.86521C1.77252 6.51194 3.02993 7.84731 4.57947 7.84731C6.12901 7.84731 7.38642 6.51194 7.38642 4.86521C7.38642 3.21899 6.12901 1.88311 4.57947 1.88311C3.02993 1.88311 1.77252 3.21899 1.77252 4.86521Z" transform="matrix(1.1924881E-08 1 -1 1.1924881E-08 247.44098 34.180172)" id="Fill-139-Copy" fill="#A2C6FF" fill-rule="evenodd" stroke="none" />
      <path d="M7.08112 5.98819L1.37361 5.98819C0.618122 5.98819 0 5.33149 0 4.52887L0 1.45931C0 0.656691 0.618122 0 1.37361 0L7.08112 0C7.83661 0 8.45473 0.656691 8.45473 1.45931L8.45473 4.52887C8.45473 5.33149 7.83661 5.98819 7.08112 5.98819" transform="translate(18.010324 27.538004)" id="Fill-141" fill="#A2C6FF" fill-rule="evenodd" stroke="none" />
      <path d="M7.55784 5.61048L1.46608 5.61048C0.659735 5.61048 -7.21992e-14 4.99521 -7.21893e-14 4.24321L-7.21516e-14 1.36727C-7.21417e-14 0.61527 0.659735 0 1.46608 0L7.55784 0C8.36418 0 9.02392 0.61527 9.02392 1.36727L9.02392 4.24321C9.02392 4.99521 8.36418 5.61048 7.55784 5.61048" transform="matrix(1.1924881E-08 1 -1 1.1924881E-08 194.83603 34.948803)" id="Fill-141-Copy" fill="#A2C6FF" fill-rule="evenodd" stroke="none" />
      <path d="M7.08112 5.98819L1.37361 5.98819C0.618122 5.98819 0 5.33149 0 4.52887L0 1.45931C0 0.656691 0.618122 0 1.37361 0L7.08112 0C7.83661 0 8.45473 0.656691 8.45473 1.45931L8.45473 4.52887C8.45473 5.33149 7.83661 5.98819 7.08112 5.98819" transform="translate(14.041377 98.28667)" id="Fill-145" fill="#A2C6FF" fill-rule="evenodd" stroke="none" />
      <path d="M7.55784 5.61048L1.46608 5.61048C0.659735 5.61048 -7.67075e-14 4.99521 -7.4193e-14 4.24321L-7.41553e-14 1.36727C-7.41454e-14 0.61527 0.659735 0 1.46608 0L7.55784 0C8.36418 0 9.02392 0.61527 9.02392 1.36727L9.02392 4.24321C9.02392 4.99521 8.36418 5.61048 7.55784 5.61048" transform="matrix(1.1924881E-08 1 -1 1.1924881E-08 203.83002 15.635061)" id="Fill-145-Copy" fill="#A2C6FF" fill-rule="evenodd" stroke="none" />
    </g>
    <g id="Group-160" transform="translate(59.733334 136)">
      <path d="M44.6371 0.0658526C42.054 0.635768 39.8634 2.00027 38.4099 4.31625L38.4099 4.31625C36.9563 6.6332 36.658 9.15739 35.6689 11.6327L35.6689 11.6327C33.5767 16.8704 30.3164 21.146 27.0127 25.5871L27.0127 25.5871C26.6078 26.1324 26.202 26.7507 25.4905 26.8393L25.4905 26.8393C24.2749 26.9899 23.6133 25.884 23.0053 24.8758L23.0053 24.8758C21.7842 22.8518 20.6152 20.8695 19.1448 18.9641L19.1448 18.9641C13.903 12.1731 7.40856 7.0777 0 3.12558L0 3.12558C1.63974 10.2309 3.34444 16.8864 6.01497 23.7752L6.01497 23.7752C7.49961 27.6058 9.12059 32.0325 11.6209 35.4389L11.6209 35.4389C11.8762 35.7865 12.1773 36.1342 12.4939 36.4325L12.4939 36.4325C15.869 39.6079 19.6023 42.0309 23.6847 44.0709L23.6847 44.0709C25.8044 45.1299 27.9858 46.0591 30.3146 45.3202L30.3146 45.3202C32.0627 44.7657 33.2857 43.346 34.3041 41.7859L34.3041 41.7859C36.8154 37.9389 38.2955 33.5258 39.1094 29.0163L39.1094 29.0163C39.9238 24.5064 40.0002 20.209 40.5103 15.7359L40.5103 15.7359C40.6284 14.704 40.7629 13.7511 41.4107 12.9405L41.4107 12.9405C42.1743 11.9857 43.3918 11.7513 44.4093 11.192L44.4093 11.192C45.4263 10.6323 46.4388 9.72634 46.2169 8.41122L46.2169 8.41122C45.995 7.09611 44.7263 6.63853 43.7957 5.99114L43.7957 5.99114C42.8652 5.34423 41.8975 4.23055 42.5948 3.09072L42.5948 3.09072C43.0871 2.28644 44.0822 2.4288 44.8421 2.17604L44.8421 2.17604C45.6016 1.92377 46.3537 1.03863 45.7452 0.279874L45.7452 0.279874C45.5746 0.0663368 45.3545 0 45.1207 0L45.1207 0C44.9624 0 44.7982 0.0300211 44.6371 0.0658526" transform="translate(0.23973857 0.053263158)" id="Clip-159" fill="none" fill-rule="evenodd" stroke="none" />
      <g clip-path="url(#mask_2)">
        <path d="M44.6371 0.0658526C42.054 0.635768 39.8634 2.00027 38.4099 4.31625L38.4099 4.31625C36.9563 6.6332 36.658 9.15739 35.6689 11.6327L35.6689 11.6327C33.5767 16.8704 30.3164 21.146 27.0127 25.5871L27.0127 25.5871C26.6078 26.1324 26.202 26.7507 25.4905 26.8393L25.4905 26.8393C24.2749 26.9899 23.6133 25.884 23.0053 24.8758L23.0053 24.8758C21.7842 22.8518 20.6152 20.8695 19.1448 18.9641L19.1448 18.9641C13.903 12.1731 7.40856 7.0777 0 3.12558L0 3.12558C1.63974 10.2309 3.34444 16.8864 6.01497 23.7752L6.01497 23.7752C7.49961 27.6058 9.12059 32.0325 11.6209 35.4389L11.6209 35.4389C11.8762 35.7865 12.1773 36.1342 12.4939 36.4325L12.4939 36.4325C15.869 39.6079 19.6023 42.0309 23.6847 44.0709L23.6847 44.0709C25.8044 45.1299 27.9858 46.0591 30.3146 45.3202L30.3146 45.3202C32.0627 44.7657 33.2857 43.346 34.3041 41.7859L34.3041 41.7859C36.8154 37.9389 38.2955 33.5258 39.1094 29.0163L39.1094 29.0163C39.9238 24.5064 40.0002 20.209 40.5103 15.7359L40.5103 15.7359C40.6284 14.704 40.7629 13.7511 41.4107 12.9405L41.4107 12.9405C42.1743 11.9857 43.3918 11.7513 44.4093 11.192L44.4093 11.192C45.4263 10.6323 46.4388 9.72634 46.2169 8.41122L46.2169 8.41122C45.995 7.09611 44.7263 6.63853 43.7957 5.99114L43.7957 5.99114C42.8652 5.34423 41.8975 4.23055 42.5948 3.09072L42.5948 3.09072C43.0871 2.28644 44.0822 2.4288 44.8421 2.17604L44.8421 2.17604C45.6016 1.92377 46.3537 1.03863 45.7452 0.279874L45.7452 0.279874C45.5746 0.0663368 45.3545 0 45.1207 0L45.1207 0C44.9624 0 44.7982 0.0300211 44.6371 0.0658526" transform="translate(0.23973857 0.053263158)" id="Fill-158" fill="url(#gradient_1)" fill-rule="evenodd" stroke="none" />
      </g>
    </g>
    <g id="Group-163" transform="translate(56.933334 138)">
      <path d="M6.61673 21.8325C8.54323 26.1295 9.94506 30.7165 12.9294 34.213L12.9294 34.213C14.5439 31.975 16.0022 29.5915 17.2742 27.119L17.2742 27.119C18.97 23.8335 20.289 20.409 21.3139 16.8675L21.3139 16.8675C15.8359 9.695 10.0269 3.6395 0 0L0 0C0 0 3.16409 14.0985 6.61673 21.8325" transform="translate(0.052418604 0.3615)" id="Clip-162" fill="none" fill-rule="evenodd" stroke="none" />
      <g clip-path="url(#mask_3)">
        <path d="M6.61673 21.8325C8.54323 26.1295 9.94506 30.7165 12.9294 34.213L12.9294 34.213C14.5439 31.975 16.0022 29.5915 17.2742 27.119L17.2742 27.119C18.97 23.8335 20.289 20.409 21.3139 16.8675L21.3139 16.8675C15.8359 9.695 10.0269 3.6395 0 0L0 0C0 0 3.16409 14.0985 6.61673 21.8325" transform="translate(0.052418604 0.3615)" id="Fill-161" fill="url(#gradient_2)" fill-rule="evenodd" stroke="none" />
      </g>
    </g>
    <g id="Group-166" transform="translate(24.266666 200)">
      <path d="M15.1229 0.467032C12.8547 0.810379 10.6075 1.61037 9.19896 3.74318L9.19896 3.74318C7.51853 6.28662 7.6136 9.00322 8.01637 12.2368L8.01637 12.2368C11.69 41.7439 5.97129 63.9289 0 92.2224L0 92.2224C0.868 93.1772 2.02993 93.3761 3.09403 92.6212L3.09403 92.6212C4.15813 91.8667 4.60361 90.9811 5.26265 89.7062L5.26265 89.7062C20.1445 60.9075 29.5212 40.4779 28.7905 6.70269L28.7905 6.70269C28.7019 2.61963 28.5439 2.13281 25.482 0.913284L25.482 0.913284C23.7814 0.236484 22.0022 0 20.2115 0L20.2115 0C18.5068 0 16.7914 0.214221 15.1229 0.467032" transform="translate(0.070725925 0.4472421)" id="Clip-165" fill="none" fill-rule="evenodd" stroke="none" />
      <g clip-path="url(#mask_4)">
        <path d="M15.1229 0.467032C12.8547 0.810379 10.6075 1.61037 9.19896 3.74318L9.19896 3.74318C7.51853 6.28662 7.6136 9.00322 8.01637 12.2368L8.01637 12.2368C11.69 41.7439 5.97129 63.9289 0 92.2224L0 92.2224C0.868 93.1772 2.02993 93.3761 3.09403 92.6212L3.09403 92.6212C4.15813 91.8667 4.60361 90.9811 5.26265 89.7062L5.26265 89.7062C20.1445 60.9075 29.5212 40.4779 28.7905 6.70269L28.7905 6.70269C28.7019 2.61963 28.5439 2.13281 25.482 0.913284L25.482 0.913284C23.7814 0.236484 22.0022 0 20.2115 0L20.2115 0C18.5068 0 16.7914 0.214221 15.1229 0.467032" transform="translate(0.070725925 0.4472421)" id="Fill-164" fill="url(#gradient_3)" fill-rule="evenodd" stroke="none" />
      </g>
    </g>
    <g id="Group-169" transform="translate(47.6 186)">
      <path d="M3.75637 4.35899C-0.869695 9.71765 -0.202696 17.6464 0.49906 24.3938L0.49906 24.3938C3.39297 52.2347 6.28688 80.0756 9.1813 107.917L9.1813 107.917C9.1951 108.122 12.2837 109.502 13.0039 108.014L13.0039 108.014C13.6361 106.71 19.3248 70.8414 19.7823 56.0427L19.7823 56.0427C20.2213 41.8015 20.8592 27.4645 20.5162 13.2072L20.5162 13.2072C20.4017 8.43993 19.9484 2.48126 15.146 0.528347L15.146 0.528347C14.251 0.164005 13.3167 0 12.3763 0L12.3763 0C9.15473 0 5.85499 1.92718 3.75637 4.35899" transform="translate(0.4970955 0.29571298)" id="Clip-168" fill="none" fill-rule="evenodd" stroke="none" />
      <g clip-path="url(#mask_5)">
        <path d="M3.75637 4.35899C-0.869695 9.71765 -0.202696 17.6464 0.49906 24.3938L0.49906 24.3938C3.39297 52.2347 6.28688 80.0756 9.1813 107.917L9.1813 107.917C9.1951 108.122 12.2837 109.502 13.0039 108.014L13.0039 108.014C13.6361 106.71 19.3248 70.8414 19.7823 56.0427L19.7823 56.0427C20.2213 41.8015 20.8592 27.4645 20.5162 13.2072L20.5162 13.2072C20.4017 8.43993 19.9484 2.48126 15.146 0.528347L15.146 0.528347C14.251 0.164005 13.3167 0 12.3763 0L12.3763 0C9.15473 0 5.85499 1.92718 3.75637 4.35899" transform="translate(0.4970955 0.29571298)" id="Fill-167" fill="url(#gradient_4)" fill-rule="evenodd" stroke="none" />
      </g>
    </g>
    <g id="Group-172" transform="translate(17.733334 190)">
      <path d="M45.2492 0.00695954C39.5683 0.355931 33.8473 0.340023 28.1578 0.506058L28.1578 0.506058C25.24 0.591561 22.3221 0.677064 19.4038 0.762069L19.4038 0.762069C18.9374 0.775988 18.4633 0.772509 17.9859 0.770023L17.9859 0.770023C17.5998 0.767538 17.2123 0.765549 16.8257 0.772012L16.8257 0.772012C15.005 0.801838 13.2039 1.02255 11.7116 2.33393L11.7116 2.33393C7.751 5.81569 8.81186 13.3842 9.69974 18.2623L9.69974 18.2623C11.0349 25.5957 12.4824 32.4603 12.4298 40.0178L12.4298 40.0178C12.3227 55.2915 8.02386 70.5056 0 82.5555L0 82.5555C5.02429 82.908 10.0495 83.2599 15.0743 83.6124L15.0743 83.6124C15.6645 83.6541 16.2943 83.685 16.8004 83.3405L16.8004 83.3405C17.4125 82.9239 17.6787 82.0778 17.9009 81.2963L17.9009 81.2963C19.2652 76.5072 20.6668 71.7334 21.8935 66.8921L21.8935 66.8921C22.5888 64.1515 26.1355 54.8755 25.3312 52.036L25.3312 52.036C28.8679 62.6875 30.3474 74.2185 29.6273 85.5352L29.6273 85.5352C39.4656 84.7443 49.3039 83.9544 59.1413 83.164L59.1413 83.164C53.338 70.6597 53.9029 55.728 54.7774 41.6672L54.7774 41.6672C55.4746 30.45 56.2664 18.8648 53.7681 7.80413L53.7681 7.80413C52.5218 2.28521 50.5769 0 45.7304 0L45.7304 0C45.5727 0 45.4131 0.00248555 45.2492 0.00695954" transform="translate(0.19592534 0.2281734)" id="Clip-171" fill="none" fill-rule="evenodd" stroke="none" />
      <g clip-path="url(#mask_6)">
        <path d="M45.2492 0.00695954C39.5683 0.355931 33.8473 0.340023 28.1578 0.506058L28.1578 0.506058C25.24 0.591561 22.3221 0.677064 19.4038 0.762069L19.4038 0.762069C18.9374 0.775988 18.4633 0.772509 17.9859 0.770023L17.9859 0.770023C17.5998 0.767538 17.2123 0.765549 16.8257 0.772012L16.8257 0.772012C15.005 0.801838 13.2039 1.02255 11.7116 2.33393L11.7116 2.33393C7.751 5.81569 8.81186 13.3842 9.69974 18.2623L9.69974 18.2623C11.0349 25.5957 12.4824 32.4603 12.4298 40.0178L12.4298 40.0178C12.3227 55.2915 8.02386 70.5056 0 82.5555L0 82.5555C5.02429 82.908 10.0495 83.2599 15.0743 83.6124L15.0743 83.6124C15.6645 83.6541 16.2943 83.685 16.8004 83.3405L16.8004 83.3405C17.4125 82.9239 17.6787 82.0778 17.9009 81.2963L17.9009 81.2963C19.2652 76.5072 20.6668 71.7334 21.8935 66.8921L21.8935 66.8921C22.5888 64.1515 26.1355 54.8755 25.3312 52.036L25.3312 52.036C28.8679 62.6875 30.3474 74.2185 29.6273 85.5352L29.6273 85.5352C39.4656 84.7443 49.3039 83.9544 59.1413 83.164L59.1413 83.164C53.338 70.6597 53.9029 55.728 54.7774 41.6672L54.7774 41.6672C55.4746 30.45 56.2664 18.8648 53.7681 7.80413L53.7681 7.80413C52.5218 2.28521 50.5769 0 45.7304 0L45.7304 0C45.5727 0 45.4131 0.00248555 45.2492 0.00695954" transform="translate(0.19592534 0.2281734)" id="Fill-170" fill="url(#gradient_5)" fill-rule="evenodd" stroke="none" />
      </g>
    </g>
    <g id="Group-175" transform="translate(28.933332 138)">
      <path d="M7.48443 7.73865C5.23142 10.7547 2.49837 15.5858 1.41364 19.7752L1.41364 19.7752C-0.992772 29.0682 0.910927 38.7953 0.0810974 48.7032L0.0810974 48.7032C-0.0307739 50.0361 -0.106771 51.5038 0.416711 52.6296L0.416711 52.6296C1.16346 54.2374 2.71833 54.3673 4.03483 54.3172L4.03483 54.3172C15.3428 53.8827 26.6272 52.7326 37.8445 50.87L37.8445 50.87C38.7484 50.7199 39.7496 50.488 40.2962 49.4405L40.2962 49.4405C40.713 48.6423 40.9741 47.5398 40.7777 46.5478L40.7777 46.5478C39.5683 40.4597 38.7607 36.6449 40.3283 30.1489L40.3283 30.1489C41.5943 24.9031 39.2766 19.3907 38.3807 14.1082L38.3807 14.1082C37.8431 10.941 37.1926 7.72428 35.8563 5.08527L35.8563 5.08527C34.5205 2.44577 32.3496 1.29423 30.1485 0.755631L30.1485 0.755631C28.5082 0.354775 26.2868 0 23.8016 0L23.8016 0C18.5281 0 12.0707 1.59797 7.48443 7.73865" transform="translate(0.019917194 0.27103603)" id="Clip-174" fill="none" fill-rule="evenodd" stroke="none" />
      <g clip-path="url(#mask_7)">
        <path d="M7.48443 7.73865C5.23142 10.7547 2.49837 15.5858 1.41364 19.7752L1.41364 19.7752C-0.992772 29.0682 0.910927 38.7953 0.0810974 48.7032L0.0810974 48.7032C-0.0307739 50.0361 -0.106771 51.5038 0.416711 52.6296L0.416711 52.6296C1.16346 54.2374 2.71833 54.3673 4.03483 54.3172L4.03483 54.3172C15.3428 53.8827 26.6272 52.7326 37.8445 50.87L37.8445 50.87C38.7484 50.7199 39.7496 50.488 40.2962 49.4405L40.2962 49.4405C40.713 48.6423 40.9741 47.5398 40.7777 46.5478L40.7777 46.5478C39.5683 40.4597 38.7607 36.6449 40.3283 30.1489L40.3283 30.1489C41.5943 24.9031 39.2766 19.3907 38.3807 14.1082L38.3807 14.1082C37.8431 10.941 37.1926 7.72428 35.8563 5.08527L35.8563 5.08527C34.5205 2.44577 32.3496 1.29423 30.1485 0.755631L30.1485 0.755631C28.5082 0.354775 26.2868 0 23.8016 0L23.8016 0C18.5281 0 12.0707 1.59797 7.48443 7.73865" transform="translate(0.019917194 0.27103603)" id="Fill-173" fill="url(#gradient_6)" fill-rule="evenodd" stroke="none" />
      </g>
    </g>
    <g id="Group-178" transform="translate(28 187)">
      <path d="M40.2776 0.00606667L1.94179 2.83873C0.798411 2.9232 -0.0729094 3.90693 0.00482251 5.02413L0.00482251 5.02413C0.0825544 6.1418 1.08132 6.98693 2.22425 6.90247L2.22425 6.90247L40.5606 4.0698C41.7039 3.98487 42.5753 3.0016 42.4975 1.8844L42.4975 1.8844C42.4234 0.818533 41.5114 0 40.4349 0L40.4349 0C40.3829 0 40.3305 0.00186667 40.2776 0.00606667" transform="translate(0.2830568 0.07)" id="Clip-177" fill="none" fill-rule="evenodd" stroke="none" />
      <g clip-path="url(#mask_8)">
        <path d="M1.94179 2.83873C0.798411 2.9232 -0.0729094 3.90693 0.00482251 5.02413C0.0825544 6.1418 1.08132 6.98693 2.22425 6.90247L40.5606 4.0698C41.7039 3.98487 42.5753 3.0016 42.4975 1.8844C42.4234 0.818533 41.5114 0 40.4349 0C40.3829 0 40.3305 0.00186667 40.2776 0.00606667L1.94179 2.83873Z" transform="translate(0.2830568 0.07)" id="Fill-176" fill="url(#gradient_7)" fill-rule="evenodd" stroke="none" />
      </g>
    </g>
    <g id="Group-181" transform="translate(11.2 142)">
      <path d="M28.1683 0.784303C23.3162 2.69467 18.8867 5.63812 15.0379 9.23247L15.0379 9.23247C14.1308 10.0806 13.2485 10.9608 12.4138 11.8858L12.4138 11.8858C11.8823 12.4432 11.3785 13.0333 10.8785 13.6306L10.8785 13.6306C6.49767 18.8646 3.1604 24.9745 0.68211 31.412L0.68211 31.412C0.508663 31.8604 0.343962 32.3083 0.178289 32.7572L0.178289 32.7572C0.133591 32.8779 0.0898651 33.0035 0.0495399 33.1286L0.0495399 33.1286C-0.0796948 34.0332 0.0495399 34.9898 0.371655 35.8705L0.371655 35.8705C1.11354 36.5448 2.38694 36.5127 3.43102 36.3267L3.43102 36.3267C7.50969 35.5959 10.9189 34.0249 14.4893 32.1389L14.4893 32.1389C14.7357 32.0099 14.9815 31.8765 15.2312 31.7431L15.2312 31.7431C18.7939 29.8332 22.0384 27.3294 24.815 24.3489L24.815 24.3489C25.1774 23.9609 25.5282 23.5734 25.8795 23.1615L25.8795 23.1615C26.7496 22.1518 27.5634 21.0817 28.3174 19.979L28.3174 19.979C28.5346 19.6762 28.7401 19.3612 28.9461 19.0423L28.9461 19.0423C31.4448 15.1496 33.222 10.7996 34.6164 6.35329L34.6164 6.35329C35.1081 4.77008 35.5196 2.92057 34.6203 1.52722L34.6203 1.52722C33.9639 0.513618 32.7386 0.0209342 31.5653 0.000973684L31.5653 0.000973684C31.5299 0 31.4939 0 31.4584 0L31.4584 0C30.324 0 29.2231 0.372921 28.1683 0.784303" transform="translate(0.01556325 0.15725)" id="Clip-180" fill="none" fill-rule="evenodd" stroke="none" />
      <g clip-path="url(#mask_9)">
        <path d="M28.1683 0.784303C23.3162 2.69467 18.8867 5.63812 15.0379 9.23247L15.0379 9.23247C14.1308 10.0806 13.2485 10.9608 12.4138 11.8858L12.4138 11.8858C11.8823 12.4432 11.3785 13.0333 10.8785 13.6306L10.8785 13.6306C6.49767 18.8646 3.1604 24.9745 0.68211 31.412L0.68211 31.412C0.508663 31.8604 0.343962 32.3083 0.178289 32.7572L0.178289 32.7572C0.133591 32.8779 0.0898651 33.0035 0.0495399 33.1286L0.0495399 33.1286C-0.0796948 34.0332 0.0495399 34.9898 0.371655 35.8705L0.371655 35.8705C1.11354 36.5448 2.38694 36.5127 3.43102 36.3267L3.43102 36.3267C7.50969 35.5959 10.9189 34.0249 14.4893 32.1389L14.4893 32.1389C14.7357 32.0099 14.9815 31.8765 15.2312 31.7431L15.2312 31.7431C18.7939 29.8332 22.0384 27.3294 24.815 24.3489L24.815 24.3489C25.1774 23.9609 25.5282 23.5734 25.8795 23.1615L25.8795 23.1615C26.7496 22.1518 27.5634 21.0817 28.3174 19.979L28.3174 19.979C28.5346 19.6762 28.7401 19.3612 28.9461 19.0423L28.9461 19.0423C31.4448 15.1496 33.222 10.7996 34.6164 6.35329L34.6164 6.35329C35.1081 4.77008 35.5196 2.92057 34.6203 1.52722L34.6203 1.52722C33.9639 0.513618 32.7386 0.0209342 31.5653 0.000973684L31.5653 0.000973684C31.5299 0 31.4939 0 31.4584 0L31.4584 0C30.324 0 29.2231 0.372921 28.1683 0.784303" transform="translate(0.01556325 0.15725)" id="Fill-179" fill="url(#gradient_8)" fill-rule="evenodd" stroke="none" />
      </g>
    </g>
    <g id="Group-184" transform="translate(11.066667 170)">
      <path d="M1.21658 1.30102C0.995851 1.52551 0.809651 1.77092 0.655184 2.03316L0.655184 2.03316C0.326184 2.57908 0.128318 3.19286 0.0475844 3.83214L0.0475844 3.83214C-0.0765489 4.7801 0.0475844 5.78265 0.356984 6.70561L0.356984 6.70561C0.403651 6.85357 0.457784 7.00204 0.515651 7.14592L0.515651 7.14592C1.30152 9.07551 2.77292 10.5949 4.39878 11.7633L4.39878 11.7633C9.28012 15.2592 14.8428 17.1888 20.4405 18.5811L20.4405 18.5811C26.0381 19.974 31.4501 20.8709 36.6954 23.076L36.6954 23.076C37.6054 23.4566 38.325 24.1679 39.3587 24.0536L39.3587 24.0536C40.6751 23.9143 41.6122 22.949 41.8675 21.5735L41.8675 21.5735C42.1265 20.198 41.3873 18.9923 40.2994 18.3531L40.2994 18.3531C39.7884 18.0526 39.018 17.9974 38.6582 17.8362L38.6582 17.8362C38.2984 17.6755 37.5741 17.5281 37.8723 17.1597L37.8723 17.1597C38.3021 16.6301 40.2141 17.1806 40.3069 16.2791L40.3069 16.2791C40.516 14.2602 36.4401 15.0347 35.503 15.1194L35.503 15.1194C33.3816 15.3143 31.7016 14.1801 30.2848 13.2316L30.2848 13.2316C26.348 10.599 22.7127 8.1148 18.9387 5.69031L18.9387 5.69031C17.2471 4.60204 15.6016 3.62857 13.9174 2.7949L13.9174 2.7949C11.5024 1.58878 9.02018 0.683163 6.25285 0.17551L6.25285 0.17551C5.67185 0.0688775 5.09505 0 4.53412 0L4.53412 0C3.31238 0 2.16625 0.326531 1.21658 1.30102" transform="translate(0.014948911 0.4387755)" id="Clip-183" fill="none" fill-rule="evenodd" stroke="none" />
      <g clip-path="url(#mask_10)">
        <path d="M1.21658 1.30102C0.995851 1.52551 0.809651 1.77092 0.655184 2.03316L0.655184 2.03316C0.326184 2.57908 0.128318 3.19286 0.0475844 3.83214L0.0475844 3.83214C-0.0765489 4.7801 0.0475844 5.78265 0.356984 6.70561L0.356984 6.70561C0.403651 6.85357 0.457784 7.00204 0.515651 7.14592L0.515651 7.14592C1.30152 9.07551 2.77292 10.5949 4.39878 11.7633L4.39878 11.7633C9.28012 15.2592 14.8428 17.1888 20.4405 18.5811L20.4405 18.5811C26.0381 19.974 31.4501 20.8709 36.6954 23.076L36.6954 23.076C37.6054 23.4566 38.325 24.1679 39.3587 24.0536L39.3587 24.0536C40.6751 23.9143 41.6122 22.949 41.8675 21.5735L41.8675 21.5735C42.1265 20.198 41.3873 18.9923 40.2994 18.3531L40.2994 18.3531C39.7884 18.0526 39.018 17.9974 38.6582 17.8362L38.6582 17.8362C38.2984 17.6755 37.5741 17.5281 37.8723 17.1597L37.8723 17.1597C38.3021 16.6301 40.2141 17.1806 40.3069 16.2791L40.3069 16.2791C40.516 14.2602 36.4401 15.0347 35.503 15.1194L35.503 15.1194C33.3816 15.3143 31.7016 14.1801 30.2848 13.2316L30.2848 13.2316C26.348 10.599 22.7127 8.1148 18.9387 5.69031L18.9387 5.69031C17.2471 4.60204 15.6016 3.62857 13.9174 2.7949L13.9174 2.7949C11.5024 1.58878 9.02018 0.683163 6.25285 0.17551L6.25285 0.17551C5.67185 0.0688775 5.09505 0 4.53412 0L4.53412 0C3.31238 0 2.16625 0.326531 1.21658 1.30102" transform="translate(0.014948911 0.4387755)" id="Fill-182" fill="url(#gradient_9)" fill-rule="evenodd" stroke="none" />
      </g>
    </g>
    <g id="Group-187" transform="translate(45.733334 131)">
      <path d="M4.29067 0.725C3.82867 1.1995 3.49478 1.813 3.16759 2.4185L3.16759 2.4185C2.44847 3.747 1.72936 5.075 1.0098 6.404L1.0098 6.404C0.369698 7.586 -0.293618 8.9975 0.137582 10.304L0.137582 10.304C0.42237 11.1665 1.12497 11.747 1.8298 12.1875L1.8298 12.1875C3.27918 13.0935 4.94997 13.6365 6.57925 13.3695L6.57925 13.3695C7.85633 13.161 10.2819 12.024 9.91814 10.131L9.91814 10.131C9.73692 9.1835 9.34723 8.2445 9.12627 7.2985L9.12627 7.2985C8.82006 5.9885 8.51429 4.679 8.20807 3.369L8.20807 3.369C8.03934 2.6455 7.8657 1.9105 7.52065 1.275L7.52065 1.275C7.17605 0.6395 6.6279 0.107 5.98333 0.0145L5.98333 0.0145C5.91504 0.0045 5.8463 0 5.778 0L5.778 0C5.23297 0 4.70089 0.303 4.29067 0.725" transform="translate(0.1949687 0.17)" id="Clip-186" fill="none" fill-rule="evenodd" stroke="none" />
      <g clip-path="url(#mask_11)">
        <path d="M4.29067 0.725C3.82867 1.1995 3.49478 1.813 3.16759 2.4185L3.16759 2.4185C2.44847 3.747 1.72936 5.075 1.0098 6.404L1.0098 6.404C0.369698 7.586 -0.293618 8.9975 0.137582 10.304L0.137582 10.304C0.42237 11.1665 1.12497 11.747 1.8298 12.1875L1.8298 12.1875C3.27918 13.0935 4.94997 13.6365 6.57925 13.3695L6.57925 13.3695C7.85633 13.161 10.2819 12.024 9.91814 10.131L9.91814 10.131C9.73692 9.1835 9.34723 8.2445 9.12627 7.2985L9.12627 7.2985C8.82006 5.9885 8.51429 4.679 8.20807 3.369L8.20807 3.369C8.03934 2.6455 7.8657 1.9105 7.52065 1.275L7.52065 1.275C7.17605 0.6395 6.6279 0.107 5.98333 0.0145L5.98333 0.0145C5.91504 0.0045 5.8463 0 5.778 0L5.778 0C5.23297 0 4.70089 0.303 4.29067 0.725" transform="translate(0.1949687 0.17)" id="Fill-185" fill="url(#gradient_10)" fill-rule="evenodd" stroke="none" />
      </g>
    </g>
    <g id="Group-190" transform="translate(45.733334 113)">
      <path d="M8.35155 0.151381C6.33632 0.683048 4.6321 2.27543 3.24481 4.08257L3.24481 4.08257C1.84978 5.89967 0.679838 8.03052 0.209223 10.4259L0.209223 10.4259C-0.261393 12.8218 0.0414381 15.5074 1.32642 17.4481L1.32642 17.4481C2.40725 19.0808 4.05145 20.0404 5.69246 20.7612L5.69246 20.7612C7.27073 21.4542 8.94448 21.9827 10.6187 21.8088L10.6187 21.8088C12.2924 21.6354 13.9757 20.6575 14.8028 18.9273L14.8028 18.9273C15.3285 17.8289 15.5449 16.4162 16.4466 15.7441L16.4466 15.7441C16.7153 15.5435 17.0404 15.4152 17.2241 15.1082L17.2241 15.1082C17.3969 14.8175 17.4024 14.4346 17.3955 14.0784L17.3955 14.0784C17.3578 12.2058 17.1518 10.3374 16.7863 8.51348L16.7863 8.51348C16.3616 6.39467 15.7977 3.28848 14.2631 1.84381L14.2631 1.84381C13.055 0.706095 11.2248 0 9.58743 0L9.58743 0C9.15728 0 8.74032 0.0492381 8.35155 0.151381" transform="translate(0.09497221 0.15190476)" id="Clip-189" fill="none" fill-rule="evenodd" stroke="none" />
      <g clip-path="url(#mask_12)">
        <path d="M8.35155 0.151381C6.33632 0.683048 4.6321 2.27543 3.24481 4.08257L3.24481 4.08257C1.84978 5.89967 0.679838 8.03052 0.209223 10.4259L0.209223 10.4259C-0.261393 12.8218 0.0414381 15.5074 1.32642 17.4481L1.32642 17.4481C2.40725 19.0808 4.05145 20.0404 5.69246 20.7612L5.69246 20.7612C7.27073 21.4542 8.94448 21.9827 10.6187 21.8088L10.6187 21.8088C12.2924 21.6354 13.9757 20.6575 14.8028 18.9273L14.8028 18.9273C15.3285 17.8289 15.5449 16.4162 16.4466 15.7441L16.4466 15.7441C16.7153 15.5435 17.0404 15.4152 17.2241 15.1082L17.2241 15.1082C17.3969 14.8175 17.4024 14.4346 17.3955 14.0784L17.3955 14.0784C17.3578 12.2058 17.1518 10.3374 16.7863 8.51348L16.7863 8.51348C16.3616 6.39467 15.7977 3.28848 14.2631 1.84381L14.2631 1.84381C13.055 0.706095 11.2248 0 9.58743 0L9.58743 0C9.15728 0 8.74032 0.0492381 8.35155 0.151381" transform="translate(0.09497221 0.15190476)" id="Fill-188" fill="url(#gradient_11)" fill-rule="evenodd" stroke="none" />
      </g>
    </g>
    <path d="M65.3333 10.1392C63.525 11.7373 61.2348 12.6563 58.9173 12.7153C57.0151 12.762 54.9481 12.2517 53.3196 11.1217C52.6697 10.6704 52.3526 10.1687 51.5424 10.4426C50.8336 10.6831 50.1998 11.3744 49.8827 12.0997C49.3697 13.2846 49.5618 14.8024 50.3565 15.7895C50.9548 16.5352 51.8552 16.9865 52.3059 17.8593C56.3124 25.6247 36.3451 26.4456 33.6567 27.511C30.6893 28.6877 28.3251 31.1077 25.882 33.2711C22.5551 36.2142 18.8124 38.8284 14.5846 39.7138C10.361 40.5993 5.56554 39.4566 2.79026 35.9107C0.895558 33.4988 0.124464 30.2563 0.0145104 27.1023C-0.106769 23.7119 0.519449 20.1873 2.37498 17.4506C5.49522 12.8545 11.32 11.4506 16.6048 11.5431C21.8892 11.6361 27.1859 12.8713 32.4236 12.0997C38.3606 11.2254 42.3775 8.01142 46.5949 3.73658C50.2975 -0.0167408 55.1397 -1.05317 59.8805 1.13254C60.8045 1.55849 61.6496 2.16998 62.3504 2.96243C64.0337 4.86857 64.7151 7.56258 65.3333 10.1392" transform="translate(0 111)" id="Fill-191" fill="#243447" fill-rule="evenodd" stroke="none" />
    <g id="Group-195" transform="translate(23.333334 139)">
      <path d="M16.2533 0.868921C11.2447 2.977 6.67479 6.22024 2.70525 10.1894L2.70525 10.1894C1.77001 11.1223 0.860496 12.0952 0 13.1128L0 13.1128C3.13283 17.1475 6.79515 20.6903 10.8389 23.5872L10.8389 23.5872C11.8281 24.2949 12.8439 24.9668 13.8907 25.5538L13.8907 25.5538C14.7886 24.4416 15.6282 23.2601 16.4052 22.0428L16.4052 22.0428C16.6324 21.7084 16.8435 21.3595 17.0541 21.0106L17.0541 21.0106C19.6312 16.7164 21.4687 11.9174 22.9072 7.01168L22.9072 7.01168C23.4144 5.26344 23.8381 3.22556 22.9077 1.68584L22.9077 1.68584C22.2302 0.570441 20.9698 0.0270405 19.7599 0.00104049L19.7599 0.00104049C19.7239 4.89427e-07 19.6875 4.89427e-07 19.6511 4.89427e-07L19.6511 4.89427e-07C18.4796 -0.000519511 17.3434 0.4134 16.2533 0.868921" transform="translate(0.38486934 0.2667595)" id="Clip-194" fill="none" fill-rule="evenodd" stroke="none" />
      <g clip-path="url(#mask_13)">
        <path d="M16.2533 0.868921C11.2447 2.977 6.67479 6.22024 2.70525 10.1894L2.70525 10.1894C1.77001 11.1223 0.860496 12.0952 0 13.1128L0 13.1128C3.13283 17.1475 6.79515 20.6903 10.8389 23.5872L10.8389 23.5872C11.8281 24.2949 12.8439 24.9668 13.8907 25.5538L13.8907 25.5538C14.7886 24.4416 15.6282 23.2601 16.4052 22.0428L16.4052 22.0428C16.6324 21.7084 16.8435 21.3595 17.0541 21.0106L17.0541 21.0106C19.6312 16.7164 21.4687 11.9174 22.9072 7.01168L22.9072 7.01168C23.4144 5.26344 23.8381 3.22556 22.9077 1.68584L22.9077 1.68584C22.2302 0.570441 20.9698 0.0270405 19.7599 0.00104049L19.7599 0.00104049C19.7239 4.89427e-07 19.6875 4.89427e-07 19.6511 4.89427e-07L19.6511 4.89427e-07C18.4796 -0.000519511 17.3434 0.4134 16.2533 0.868921" transform="translate(0.38486934 0.2667595)" id="Fill-193" fill="url(#gradient_12)" fill-rule="evenodd" stroke="none" />
      </g>
    </g>
    <g id="Group-198" transform="translate(24.266666 289)">
      <path d="M0.323104 0.2618C0.323104 0.2618 -0.196646 3.28953 0.0822647 3.99513L0.0822647 3.99513C0.17552 4.23173 0.767992 4.74227 1.68215 5.2388L1.68215 5.2388C1.86096 5.33587 2.03208 5.15527 2.00684 4.89627L2.00684 4.89627L1.94823 4.31013C1.90759 3.93073 2.06844 3.6204 2.31013 3.56067L2.31013 3.56067C2.33494 3.5546 2.36232 3.54807 2.38884 3.54947L2.38884 3.54947C2.56979 3.549 4.30015 4.80713 5.52403 5.81933L5.52403 5.81933C6.09254 6.28927 6.73164 6.5198 7.34764 6.45167L7.34764 6.45167C8.03594 6.3756 8.73749 6.20667 9.4352 5.91827L9.4352 5.91827C9.45445 5.9094 9.65337 5.74653 9.65337 5.74653L9.65337 5.74653C9.81849 5.60793 9.79624 5.23973 9.61187 5.07267L9.61187 5.07267C8.6545 4.228 6.31156 2.15647 5.80465 1.70333L5.80465 1.70333C5.30971 1.26373 4.95252 1.0094 4.77071 0.8932L4.77071 0.8932C4.68644 0.839533 4.59831 0.8456 4.52944 0.905333L4.52944 0.905333C4.07472 1.3118 2.23784 2.72627 0.952365 0.237067L0.952365 0.237067C0.915576 0.1638 0.865098 0.1092 0.808631 0.0765333L0.808631 0.0765333C0.742326 0.0396667 0.650354 0 0.563942 0L0.563942 0C0.456998 0 0.357754 0.0606667 0.323104 0.2618" transform="translate(0.23471864 0.16193333)" id="Clip-197" fill="none" fill-rule="evenodd" stroke="none" />
      <g clip-path="url(#mask_14)">
        <path d="M0.323104 0.2618C0.323104 0.2618 -0.196646 3.28953 0.0822647 3.99513L0.0822647 3.99513C0.17552 4.23173 0.767992 4.74227 1.68215 5.2388L1.68215 5.2388C1.86096 5.33587 2.03208 5.15527 2.00684 4.89627L2.00684 4.89627L1.94823 4.31013C1.90759 3.93073 2.06844 3.6204 2.31013 3.56067L2.31013 3.56067C2.33494 3.5546 2.36232 3.54807 2.38884 3.54947L2.38884 3.54947C2.56979 3.549 4.30015 4.80713 5.52403 5.81933L5.52403 5.81933C6.09254 6.28927 6.73164 6.5198 7.34764 6.45167L7.34764 6.45167C8.03594 6.3756 8.73749 6.20667 9.4352 5.91827L9.4352 5.91827C9.45445 5.9094 9.65337 5.74653 9.65337 5.74653L9.65337 5.74653C9.81849 5.60793 9.79624 5.23973 9.61187 5.07267L9.61187 5.07267C8.6545 4.228 6.31156 2.15647 5.80465 1.70333L5.80465 1.70333C5.30971 1.26373 4.95252 1.0094 4.77071 0.8932L4.77071 0.8932C4.68644 0.839533 4.59831 0.8456 4.52944 0.905333L4.52944 0.905333C4.07472 1.3118 2.23784 2.72627 0.952365 0.237067L0.952365 0.237067C0.915576 0.1638 0.865098 0.1092 0.808631 0.0765333L0.808631 0.0765333C0.742326 0.0396667 0.650354 0 0.563942 0L0.563942 0C0.456998 0 0.357754 0.0606667 0.323104 0.2618" transform="translate(0.23471864 0.16193333)" id="Fill-196" fill="url(#gradient_13)" fill-rule="evenodd" stroke="none" />
      </g>
    </g>
    <g id="Group-201" transform="translate(56.8 292)">
      <path d="M0.0211262 0.3675C0.0211262 0.3675 -0.103716 4.645 0.253564 5.648L0.253564 5.648C0.373068 5.9855 1.00878 6.7165 1.95331 7.4335L1.95331 7.4335C2.13811 7.574 2.28061 7.321 2.22353 6.954L2.22353 6.954L2.09417 6.1225C2.00834 5.5855 2.12456 5.1485 2.35002 5.068L2.35002 5.068C2.37343 5.059 2.3993 5.05 2.42476 5.0525L2.42476 5.0525C2.59929 5.0545 4.42676 6.863 5.73432 8.3145L5.73432 8.3145C6.3417 8.9885 6.98727 9.325 7.57329 9.238L7.57329 9.238C8.22871 9.1405 8.88455 8.9115 9.52231 8.514L9.52231 8.514C9.53956 8.502 9.71163 8.2745 9.71163 8.2745L9.71163 8.2745C9.85331 8.0805 9.78637 7.5595 9.58761 7.3205L9.58761 7.3205C8.55807 6.1095 6.03739 3.141 5.49244 2.492L5.49244 2.492C4.95939 1.8615 4.58281 1.4965 4.39308 1.3285L4.39308 1.3285C4.30479 1.2515 4.22019 1.258 4.16188 1.3425L4.16188 1.3425C3.77339 1.911 2.17589 3.885 0.624806 0.3415L0.624806 0.3415C0.580454 0.237 0.525014 0.159 0.465878 0.1115L0.465878 0.1115C0.396476 0.0585 0.302022 0 0.217425 0L0.217425 0C0.11558 0 0.0289289 0.085 0.0211262 0.3675" transform="translate(0.38502315 0.4525)" id="Clip-200" fill="none" fill-rule="evenodd" stroke="none" />
      <g clip-path="url(#mask_15)">
        <path d="M0.0211262 0.3675C0.0211262 0.3675 -0.103716 4.645 0.253564 5.648L0.253564 5.648C0.373068 5.9855 1.00878 6.7165 1.95331 7.4335L1.95331 7.4335C2.13811 7.574 2.28061 7.321 2.22353 6.954L2.22353 6.954L2.09417 6.1225C2.00834 5.5855 2.12456 5.1485 2.35002 5.068L2.35002 5.068C2.37343 5.059 2.3993 5.05 2.42476 5.0525L2.42476 5.0525C2.59929 5.0545 4.42676 6.863 5.73432 8.3145L5.73432 8.3145C6.3417 8.9885 6.98727 9.325 7.57329 9.238L7.57329 9.238C8.22871 9.1405 8.88455 8.9115 9.52231 8.514L9.52231 8.514C9.53956 8.502 9.71163 8.2745 9.71163 8.2745L9.71163 8.2745C9.85331 8.0805 9.78637 7.5595 9.58761 7.3205L9.58761 7.3205C8.55807 6.1095 6.03739 3.141 5.49244 2.492L5.49244 2.492C4.95939 1.8615 4.58281 1.4965 4.39308 1.3285L4.39308 1.3285C4.30479 1.2515 4.22019 1.258 4.16188 1.3425L4.16188 1.3425C3.77339 1.911 2.17589 3.885 0.624806 0.3415L0.624806 0.3415C0.580454 0.237 0.525014 0.159 0.465878 0.1115L0.465878 0.1115C0.396476 0.0585 0.302022 0 0.217425 0L0.217425 0C0.11558 0 0.0289289 0.085 0.0211262 0.3675" transform="translate(0.38502315 0.4525)" id="Fill-199" fill="url(#gradient_14)" fill-rule="evenodd" stroke="none" />
      </g>
    </g>
  </g>
</svg>